<svg xmlns="http://www.w3.org/2000/svg" viewBox="0 0 22 12" width="352" height="192" shape-rendering="crispEdges"><rect x="0" y="0" width="1" height="1" fill="#1D3B1A"/><rect x="1" y="0" width="1" height="1" fill="#1D3B1A"/><rect x="2" y="0" width="1" height="1" fill="#1D3B1A"/><rect x="3" y="0" width="1" height="1" fill="#1D3B1A"/><rect x="4" y="0" width="1" height="1" fill="#1D3B1A"/><rect x="5" y="0" width="1" height="1" fill="#1D3B1A"/><rect x="6" y="0" width="1" height="1" fill="#1D3B1A"/><rect x="7" y="0" width="1" height="1" fill="#1D3B1A"/><rect x="8" y="0" width="1" height="1" fill="#1D3B1A"/><rect x="9" y="0" width="1" height="1" fill="#1D3B1A"/><rect x="10" y="0" width="1" height="1" fill="#1D3B1A"/><rect x="11" y="0" width="1" height="1" fill="#1D3B1A"/><rect x="12" y="0" width="1" height="1" fill="#1D3B1A"/><rect x="13" y="0" width="1" height="1" fill="#1D3B1A"/><rect x="14" y="0" width="1" height="1" fill="#1D3B1A"/><rect x="15" y="0" width="1" height="1" fill="#1D3B1A"/><rect x="16" y="0" width="1" height="1" fill="#1D3B1A"/><rect x="17" y="0" width="1" height="1" fill="#1D3B1A"/><rect x="18" y="0" width="1" height="1" fill="#1D3B1A"/><rect x="19" y="0" width="1" height="1" fill="#1D3B1A"/><rect x="20" y="0" width="1" height="1" fill="#1D3B1A"/><rect x="21" y="0" width="1" height="1" fill="#1D3B1A"/><rect x="0" y="1" width="1" height="1" fill="#1D3B1A"/><rect x="1" y="1" width="1" height="1" fill="#3F8A35"/><rect x="2" y="1" width="1" height="1" fill="#3F8A35"/><rect x="3" y="1" width="1" height="1" fill="#3F8A35"/><rect x="4" y="1" width="1" height="1" fill="#3F8A35"/><rect x="5" y="1" width="1" height="1" fill="#3F8A35"/><rect x="6" y="1" width="1" height="1" fill="#3F8A35"/><rect x="7" y="1" width="1" height="1" fill="#3F8A35"/><rect x="8" y="1" width="1" height="1" fill="#3F8A35"/><rect x="9" y="1" width="1" height="1" fill="#3F8A35"/><rect x="10" y="1" width="1" height="1" fill="#3F8A35"/><rect x="11" y="1" width="1" height="1" fill="#3F8A35"/><rect x="12" y="1" width="1" height="1" fill="#3F8A35"/><rect x="13" y="1" width="1" height="1" fill="#3F8A35"/><rect x="14" y="1" width="1" height="1" fill="#3F8A35"/><rect x="15" y="1" width="1" height="1" fill="#3F8A35"/><rect x="16" y="1" width="1" height="1" fill="#3F8A35"/><rect x="17" y="1" width="1" height="1" fill="#3F8A35"/><rect x="18" y="1" width="1" height="1" fill="#3F8A35"/><rect x="19" y="1" width="1" height="1" fill="#3F8A35"/><rect x="20" y="1" width="1" height="1" fill="#3F8A35"/><rect x="21" y="1" width="1" height="1" fill="#1D3B1A"/><rect x="0" y="2" width="1" height="1" fill="#1D3B1A"/><rect x="1" y="2" width="1" height="1" fill="#3F8A35"/><rect x="2" y="2" width="1" height="1" fill="#A8DD8C"/><rect x="3" y="2" width="1" height="1" fill="#A8DD8C"/><rect x="4" y="2" width="1" height="1" fill="#62B04F"/><rect x="5" y="2" width="1" height="1" fill="#62B04F"/><rect x="6" y="2" width="1" height="1" fill="#62B04F"/><rect x="7" y="2" width="1" height="1" fill="#62B04F"/><rect x="8" y="2" width="1" height="1" fill="#62B04F"/><rect x="9" y="2" width="1" height="1" fill="#E4F3D6"/><rect x="10" y="2" width="1" height="1" fill="#E4F3D6"/><rect x="11" y="2" width="1" height="1" fill="#E4F3D6"/><rect x="12" y="2" width="1" height="1" fill="#E4F3D6"/><rect x="13" y="2" width="1" height="1" fill="#62B04F"/><rect x="14" y="2" width="1" height="1" fill="#62B04F"/><rect x="15" y="2" width="1" height="1" fill="#62B04F"/><rect x="16" y="2" width="1" height="1" fill="#62B04F"/><rect x="17" y="2" width="1" height="1" fill="#62B04F"/><rect x="18" y="2" width="1" height="1" fill="#A8DD8C"/><rect x="19" y="2" width="1" height="1" fill="#A8DD8C"/><rect x="20" y="2" width="1" height="1" fill="#3F8A35"/><rect x="21" y="2" width="1" height="1" fill="#1D3B1A"/><rect x="0" y="3" width="1" height="1" fill="#1D3B1A"/><rect x="1" y="3" width="1" height="1" fill="#3F8A35"/><rect x="2" y="3" width="1" height="1" fill="#A8DD8C"/><rect x="3" y="3" width="1" height="1" fill="#62B04F"/><rect x="4" y="3" width="1" height="1" fill="#62B04F"/><rect x="5" y="3" width="1" height="1" fill="#62B04F"/><rect x="6" y="3" width="1" height="1" fill="#62B04F"/><rect x="7" y="3" width="1" height="1" fill="#62B04F"/><rect x="8" y="3" width="1" height="1" fill="#E4F3D6"/><rect x="9" y="3" width="1" height="1" fill="#E4F3D6"/><rect x="10" y="3" width="1" height="1" fill="#E4F3D6"/><rect x="11" y="3" width="1" height="1" fill="#E4F3D6"/><rect x="12" y="3" width="1" height="1" fill="#E4F3D6"/><rect x="13" y="3" width="1" height="1" fill="#E4F3D6"/><rect x="14" y="3" width="1" height="1" fill="#62B04F"/><rect x="15" y="3" width="1" height="1" fill="#62B04F"/><rect x="16" y="3" width="1" height="1" fill="#62B04F"/><rect x="17" y="3" width="1" height="1" fill="#62B04F"/><rect x="18" y="3" width="1" height="1" fill="#62B04F"/><rect x="19" y="3" width="1" height="1" fill="#62B04F"/><rect x="20" y="3" width="1" height="1" fill="#A8DD8C"/><rect x="21" y="3" width="1" height="1" fill="#3F8A35"/><rect x="0" y="4" width="1" height="1" fill="#1D3B1A"/><rect x="1" y="4" width="1" height="1" fill="#3F8A35"/><rect x="2" y="4" width="1" height="1" fill="#62B04F"/><rect x="3" y="4" width="1" height="1" fill="#62B04F"/><rect x="4" y="4" width="1" height="1" fill="#62B04F"/><rect x="5" y="4" width="1" height="1" fill="#62B04F"/><rect x="6" y="4" width="1" height="1" fill="#62B04F"/><rect x="7" y="4" width="1" height="1" fill="#E4F3D6"/><rect x="8" y="4" width="1" height="1" fill="#E4F3D6"/><rect x="9" y="4" width="1" height="1" fill="#1D3B1A"/><rect x="10" y="4" width="1" height="1" fill="#1D3B1A"/><rect x="11" y="4" width="1" height="1" fill="#E4F3D6"/><rect x="12" y="4" width="1" height="1" fill="#E4F3D6"/><rect x="13" y="4" width="1" height="1" fill="#E4F3D6"/><rect x="14" y="4" width="1" height="1" fill="#E4F3D6"/><rect x="15" y="4" width="1" height="1" fill="#62B04F"/><rect x="16" y="4" width="1" height="1" fill="#62B04F"/><rect x="17" y="4" width="1" height="1" fill="#62B04F"/><rect x="18" y="4" width="1" height="1" fill="#62B04F"/><rect x="19" y="4" width="1" height="1" fill="#62B04F"/><rect x="20" y="4" width="1" height="1" fill="#62B04F"/><rect x="21" y="4" width="1" height="1" fill="#3F8A35"/><rect x="0" y="5" width="1" height="1" fill="#1D3B1A"/><rect x="1" y="5" width="1" height="1" fill="#3F8A35"/><rect x="2" y="5" width="1" height="1" fill="#62B04F"/><rect x="3" y="5" width="1" height="1" fill="#1D3B1A"/><rect x="4" y="5" width="1" height="1" fill="#1D3B1A"/><rect x="5" y="5" width="1" height="1" fill="#62B04F"/><rect x="6" y="5" width="1" height="1" fill="#62B04F"/><rect x="7" y="5" width="1" height="1" fill="#E4F3D6"/><rect x="8" y="5" width="1" height="1" fill="#E4F3D6"/><rect x="9" y="5" width="1" height="1" fill="#1D3B1A"/><rect x="10" y="5" width="1" height="1" fill="#E4F3D6"/><rect x="11" y="5" width="1" height="1" fill="#1D3B1A"/><rect x="12" y="5" width="1" height="1" fill="#E4F3D6"/><rect x="13" y="5" width="1" height="1" fill="#E4F3D6"/><rect x="14" y="5" width="1" height="1" fill="#E4F3D6"/><rect x="15" y="5" width="1" height="1" fill="#62B04F"/><rect x="16" y="5" width="1" height="1" fill="#62B04F"/><rect x="17" y="5" width="1" height="1" fill="#1D3B1A"/><rect x="18" y="5" width="1" height="1" fill="#1D3B1A"/><rect x="19" y="5" width="1" height="1" fill="#62B04F"/><rect x="20" y="5" width="1" height="1" fill="#62B04F"/><rect x="21" y="5" width="1" height="1" fill="#3F8A35"/><rect x="0" y="6" width="1" height="1" fill="#1D3B1A"/><rect x="1" y="6" width="1" height="1" fill="#3F8A35"/><rect x="2" y="6" width="1" height="1" fill="#62B04F"/><rect x="3" y="6" width="1" height="1" fill="#1D3B1A"/><rect x="4" y="6" width="1" height="1" fill="#1D3B1A"/><rect x="5" y="6" width="1" height="1" fill="#62B04F"/><rect x="6" y="6" width="1" height="1" fill="#62B04F"/><rect x="7" y="6" width="1" height="1" fill="#E4F3D6"/><rect x="8" y="6" width="1" height="1" fill="#E4F3D6"/><rect x="9" y="6" width="1" height="1" fill="#1D3B1A"/><rect x="10" y="6" width="1" height="1" fill="#1D3B1A"/><rect x="11" y="6" width="1" height="1" fill="#E4F3D6"/><rect x="12" y="6" width="1" height="1" fill="#E4F3D6"/><rect x="13" y="6" width="1" height="1" fill="#E4F3D6"/><rect x="14" y="6" width="1" height="1" fill="#E4F3D6"/><rect x="15" y="6" width="1" height="1" fill="#62B04F"/><rect x="16" y="6" width="1" height="1" fill="#62B04F"/><rect x="17" y="6" width="1" height="1" fill="#1D3B1A"/><rect x="18" y="6" width="1" height="1" fill="#1D3B1A"/><rect x="19" y="6" width="1" height="1" fill="#62B04F"/><rect x="20" y="6" width="1" height="1" fill="#62B04F"/><rect x="21" y="6" width="1" height="1" fill="#3F8A35"/><rect x="0" y="7" width="1" height="1" fill="#1D3B1A"/><rect x="1" y="7" width="1" height="1" fill="#3F8A35"/><rect x="2" y="7" width="1" height="1" fill="#62B04F"/><rect x="3" y="7" width="1" height="1" fill="#62B04F"/><rect x="4" y="7" width="1" height="1" fill="#62B04F"/><rect x="5" y="7" width="1" height="1" fill="#62B04F"/><rect x="6" y="7" width="1" height="1" fill="#62B04F"/><rect x="7" y="7" width="1" height="1" fill="#E4F3D6"/><rect x="8" y="7" width="1" height="1" fill="#E4F3D6"/><rect x="9" y="7" width="1" height="1" fill="#1D3B1A"/><rect x="10" y="7" width="1" height="1" fill="#E4F3D6"/><rect x="11" y="7" width="1" height="1" fill="#1D3B1A"/><rect x="12" y="7" width="1" height="1" fill="#E4F3D6"/><rect x="13" y="7" width="1" height="1" fill="#E4F3D6"/><rect x="14" y="7" width="1" height="1" fill="#E4F3D6"/><rect x="15" y="7" width="1" height="1" fill="#62B04F"/><rect x="16" y="7" width="1" height="1" fill="#62B04F"/><rect x="17" y="7" width="1" height="1" fill="#62B04F"/><rect x="18" y="7" width="1" height="1" fill="#62B04F"/><rect x="19" y="7" width="1" height="1" fill="#62B04F"/><rect x="20" y="7" width="1" height="1" fill="#62B04F"/><rect x="21" y="7" width="1" height="1" fill="#3F8A35"/><rect x="0" y="8" width="1" height="1" fill="#1D3B1A"/><rect x="1" y="8" width="1" height="1" fill="#3F8A35"/><rect x="2" y="8" width="1" height="1" fill="#A8DD8C"/><rect x="3" y="8" width="1" height="1" fill="#62B04F"/><rect x="4" y="8" width="1" height="1" fill="#62B04F"/><rect x="5" y="8" width="1" height="1" fill="#62B04F"/><rect x="6" y="8" width="1" height="1" fill="#62B04F"/><rect x="7" y="8" width="1" height="1" fill="#62B04F"/><rect x="8" y="8" width="1" height="1" fill="#E4F3D6"/><rect x="9" y="8" width="1" height="1" fill="#E4F3D6"/><rect x="10" y="8" width="1" height="1" fill="#E4F3D6"/><rect x="11" y="8" width="1" height="1" fill="#E4F3D6"/><rect x="12" y="8" width="1" height="1" fill="#E4F3D6"/><rect x="13" y="8" width="1" height="1" fill="#E4F3D6"/><rect x="14" y="8" width="1" height="1" fill="#62B04F"/><rect x="15" y="8" width="1" height="1" fill="#62B04F"/><rect x="16" y="8" width="1" height="1" fill="#62B04F"/><rect x="17" y="8" width="1" height="1" fill="#62B04F"/><rect x="18" y="8" width="1" height="1" fill="#62B04F"/><rect x="19" y="8" width="1" height="1" fill="#62B04F"/><rect x="20" y="8" width="1" height="1" fill="#A8DD8C"/><rect x="21" y="8" width="1" height="1" fill="#3F8A35"/><rect x="0" y="9" width="1" height="1" fill="#1D3B1A"/><rect x="1" y="9" width="1" height="1" fill="#3F8A35"/><rect x="2" y="9" width="1" height="1" fill="#A8DD8C"/><rect x="3" y="9" width="1" height="1" fill="#A8DD8C"/><rect x="4" y="9" width="1" height="1" fill="#62B04F"/><rect x="5" y="9" width="1" height="1" fill="#62B04F"/><rect x="6" y="9" width="1" height="1" fill="#62B04F"/><rect x="7" y="9" width="1" height="1" fill="#62B04F"/><rect x="8" y="9" width="1" height="1" fill="#62B04F"/><rect x="9" y="9" width="1" height="1" fill="#E4F3D6"/><rect x="10" y="9" width="1" height="1" fill="#E4F3D6"/><rect x="11" y="9" width="1" height="1" fill="#E4F3D6"/><rect x="12" y="9" width="1" height="1" fill="#E4F3D6"/><rect x="13" y="9" width="1" height="1" fill="#62B04F"/><rect x="14" y="9" width="1" height="1" fill="#62B04F"/><rect x="15" y="9" width="1" height="1" fill="#62B04F"/><rect x="16" y="9" width="1" height="1" fill="#62B04F"/><rect x="17" y="9" width="1" height="1" fill="#62B04F"/><rect x="18" y="9" width="1" height="1" fill="#A8DD8C"/><rect x="19" y="9" width="1" height="1" fill="#A8DD8C"/><rect x="20" y="9" width="1" height="1" fill="#3F8A35"/><rect x="21" y="9" width="1" height="1" fill="#1D3B1A"/><rect x="0" y="10" width="1" height="1" fill="#1D3B1A"/><rect x="1" y="10" width="1" height="1" fill="#3F8A35"/><rect x="2" y="10" width="1" height="1" fill="#3F8A35"/><rect x="3" y="10" width="1" height="1" fill="#3F8A35"/><rect x="4" y="10" width="1" height="1" fill="#3F8A35"/><rect x="5" y="10" width="1" height="1" fill="#3F8A35"/><rect x="6" y="10" width="1" height="1" fill="#3F8A35"/><rect x="7" y="10" width="1" height="1" fill="#3F8A35"/><rect x="8" y="10" width="1" height="1" fill="#3F8A35"/><rect x="9" y="10" width="1" height="1" fill="#3F8A35"/><rect x="10" y="10" width="1" height="1" fill="#3F8A35"/><rect x="11" y="10" width="1" height="1" fill="#3F8A35"/><rect x="12" y="10" width="1" height="1" fill="#3F8A35"/><rect x="13" y="10" width="1" height="1" fill="#3F8A35"/><rect x="14" y="10" width="1" height="1" fill="#3F8A35"/><rect x="15" y="10" width="1" height="1" fill="#3F8A35"/><rect x="16" y="10" width="1" height="1" fill="#3F8A35"/><rect x="17" y="10" width="1" height="1" fill="#3F8A35"/><rect x="18" y="10" width="1" height="1" fill="#3F8A35"/><rect x="19" y="10" width="1" height="1" fill="#3F8A35"/><rect x="20" y="10" width="1" height="1" fill="#3F8A35"/><rect x="21" y="10" width="1" height="1" fill="#1D3B1A"/><rect x="0" y="11" width="1" height="1" fill="#1D3B1A"/><rect x="1" y="11" width="1" height="1" fill="#1D3B1A"/><rect x="2" y="11" width="1" height="1" fill="#1D3B1A"/><rect x="3" y="11" width="1" height="1" fill="#1D3B1A"/><rect x="4" y="11" width="1" height="1" fill="#1D3B1A"/><rect x="5" y="11" width="1" height="1" fill="#1D3B1A"/><rect x="6" y="11" width="1" height="1" fill="#1D3B1A"/><rect x="7" y="11" width="1" height="1" fill="#1D3B1A"/><rect x="8" y="11" width="1" height="1" fill="#1D3B1A"/><rect x="9" y="11" width="1" height="1" fill="#1D3B1A"/><rect x="10" y="11" width="1" height="1" fill="#1D3B1A"/><rect x="11" y="11" width="1" height="1" fill="#1D3B1A"/><rect x="12" y="11" width="1" height="1" fill="#1D3B1A"/><rect x="13" y="11" width="1" height="1" fill="#1D3B1A"/><rect x="14" y="11" width="1" height="1" fill="#1D3B1A"/><rect x="15" y="11" width="1" height="1" fill="#1D3B1A"/><rect x="16" y="11" width="1" height="1" fill="#1D3B1A"/><rect x="17" y="11" width="1" height="1" fill="#1D3B1A"/><rect x="18" y="11" width="1" height="1" fill="#1D3B1A"/><rect x="19" y="11" width="1" height="1" fill="#1D3B1A"/><rect x="20" y="11" width="1" height="1" fill="#1D3B1A"/><rect x="21" y="11" width="1" height="1" fill="#1D3B1A"/></svg>
