<svg xmlns="http://www.w3.org/2000/svg" fill="none" viewBox="0 0 24 24" id="Chat-Bubble-Typing-Oval--Streamline-Flex" height="24" width="24">
  <desc>
    Chat Bubble Typing Oval Streamline Icon: https://streamlinehq.com
  </desc>
  <g id="chat-bubble-typing-oval--messages-message-bubble-typing-chat">
    <path id="Subtract" fill="currentColor" fill-rule="evenodd" d="M4.210577142857143 3.406645714285714C6.163182857142857 1.454046857142857 8.978897142857141 0.4813062857142857 12.42810857142857 0.4813062857142857c3.449194285714286 0 6.264977142857143 0.9727405714285715 8.217548571428571 2.9253394285714283 1.9525714285714284 1.9525885714285716 2.9252571428571423 4.76832 2.9252571428571423 8.217514285714286 0 3.449211428571428 -0.9726857142857143 6.264925714285714 -2.9252571428571423 8.217497142857143 -1.9525714285714284 1.9525714285714284 -4.7683542857142855 2.9254285714285713 -8.217548571428571 2.9254285714285713 -1.8972514285714284 0 -3.6017828571428567 -0.29348571428571424 -5.079651428571428 -0.884742857142857l-4.537902857142857 1.5126857142857142c-1.3604759999999998 0.4534285714285714 -2.6432624571428573 -0.8645142857142856 -2.1531754285714286 -2.212285714285714l1.5740554285714285 -4.328554285714286C1.598994857142857 15.341965714285713 1.2852462857142857 13.586005714285713 1.2852462857142857 11.62416c0 -3.449194285714286 0.9727422857142856 -6.264925714285714 2.925330857142857 -8.217514285714286ZM12.53418857142857 13.229142857142856c0.8261999999999999 0 1.4959542857142856 -0.6697714285714286 1.4959542857142856 -1.4959714285714285 0 -0.8261828571428571 -0.6697542857142856 -1.4959542857142856 -1.4959542857142856 -1.4959542857142856s-1.4959714285714285 0.6697714285714286 -1.4959714285714285 1.4959542857142856c0 0.8261999999999999 0.6697714285714286 1.4959714285714285 1.4959714285714285 1.4959714285714285Zm-3.9503314285714284 -1.4959714285714285c0 0.8261999999999999 -0.6697714285714286 1.4959714285714285 -1.4959542857142856 1.4959714285714285 -0.8261999999999999 0 -1.4959714285714285 -0.6697714285714286 -1.4959714285714285 -1.4959714285714285 0 -0.8261828571428571 0.6697714285714286 -1.4959542857142856 1.4959714285714285 -1.4959542857142856 0.8261828571428571 0 1.4959542857142856 0.6697714285714286 1.4959542857142856 1.4959542857142856Zm9.395742857142857 1.4959714285714285c0.8262857142857142 0 1.4960571428571428 -0.6697714285714286 1.4960571428571428 -1.4959714285714285 0 -0.8261828571428571 -0.6697714285714286 -1.4959542857142856 -1.4960571428571428 -1.4959542857142856 -0.8261142857142857 0 -1.49592 0.6697714285714286 -1.49592 1.4959542857142856 0 0.8261999999999999 0.6698057142857142 1.4959714285714285 1.49592 1.4959714285714285Z" clip-rule="evenodd" stroke-width="1.7143"></path>
  </g>
</svg>