<svg xmlns="http://www.w3.org/2000/svg" fill="none" viewBox="0 0 24 24" id="Dashboard-3--Streamline-Flex">
  <desc>
    Dashboard 3 Streamline Icon: https://streamlinehq.com
  </desc>
  <g id="dashboard-3--app-application-dashboard-home-layout-vertical">
    <path id="Union" fill="currentColor" fill-rule="evenodd" d="M5.64888 0.49072285714285707c-0.8397771428571429 0 -1.6487314285714283 0.11282742857142856 -2.392182857142857 0.23468571428571428 -0.7901142857142857 0.12951085714285715 -1.4191371428571427 0.6447719999999999 -1.8446245714285712 1.2715971428571429 -0.42916971428571427 0.6322457142857143 -0.6962331428571428 1.4357314285714284 -0.7586914285714286 2.2942114285714283 -0.07841485714285713 1.077805714285714 -0.14612742857142855 2.2032514285714284 -0.14612742857142855 3.35712s0.06771257142857143 2.2793142857142854 0.14612742857142855 3.35712c0.062458285714285716 0.8584799999999999 0.3295234285714286 1.6619657142857143 0.7586914285714286 2.2942114285714283 0.42548742857142857 0.6268285714285714 1.0545102857142856 1.1420914285714285 1.8446245714285712 1.2716057142857142 0.7434514285714285 0.12185142857142857 1.5524057142857142 0.23468571428571428 2.392182857142857 0.23468571428571428s1.6487485714285715 -0.11283428571428572 2.392182857142857 -0.23468571428571428c0.7901142857142857 -0.12951428571428572 1.4191371428571427 -0.6447771428571428 1.8446228571428571 -1.2716057142857142 0.4291714285714286 -0.6322457142857143 0.69624 -1.4357314285714284 0.7586914285714286 -2.2942114285714283 0.07841142857142858 -1.077805714285714 0.14612571428571428 -2.2032514285714284 0.14612571428571428 -3.35712s-0.06771428571428571 -2.2793142857142854 -0.14612571428571428 -3.35712c-0.06245142857142856 -0.8584799999999999 -0.32952 -1.6619657142857143 -0.7586914285714286 -2.2942114285714283 -0.42548571428571424 -0.6268234285714286 -1.0545085714285714 -1.1420862857142855 -1.8446228571428571 -1.2715971428571429 -0.7434342857142857 -0.1218582857142857 -1.5524057142857142 -0.23468571428571428 -2.392182857142857 -0.23468571428571428ZM18.340799999999998 23.509199999999996c0.8412 0 1.6517142857142857 -0.11262857142857141 2.396742857142857 -0.2343428571428571 0.7904571428571429 -0.12925714285714285 1.4206285714285714 -0.6435428571428571 1.847142857142857 -1.2701142857142858 0.43028571428571427 -0.6320571428571429 0.6980571428571428 -1.4353714285714285 0.7607999999999999 -2.293885714285714 0.07851428571428572 -1.0770857142857142 0.1464 -2.2018285714285715 0.1464 -3.355131428571428 0 -1.1532342857142857 -0.06788571428571429 -2.2780457142857142 -0.1464 -3.355182857142857 -0.06274285714285714 -0.8584457142857143 -0.3305142857142857 -1.66176 -0.7607999999999999 -2.293765714285714 -0.4265142857142857 -0.6267257142857143 -1.0566857142857142 -1.140942857142857 -1.847142857142857 -1.2701314285714285 -0.7450285714285714 -0.12176571428571427 -1.5555428571428571 -0.23448000000000002 -2.396742857142857 -0.23448000000000002 -0.8413714285714285 0 -1.6518514285714285 0.11271428571428571 -2.3968971428571426 0.23448000000000002 -0.7904742857142857 0.1291885714285714 -1.4205771428571428 0.6434057142857142 -1.8472114285714283 1.2701314285714285 -0.43023428571428574 0.6320057142857143 -0.6980571428571428 1.43532 -0.7606971428571428 2.293765714285714 -0.07858285714285713 1.0771371428571428 -0.14645142857142857 2.2019485714285714 -0.14645142857142857 3.355182857142857 0 1.1533028571428572 0.06786857142857143 2.2780457142857142 0.14645142857142857 3.355131428571428 0.06264 0.8585142857142857 0.3304628571428571 1.6618285714285714 0.7606971428571428 2.293885714285714 0.4266342857142857 0.6265714285714286 1.0567371428571428 1.1408571428571428 1.8472114285714283 1.2701142857142858 0.7450457142857142 0.12171428571428569 1.5555257142857142 0.2343428571428571 2.3968971428571426 0.2343428571428571Zm-12.69192 -6.267771428571429c-0.7936799999999999 0 -1.56696 0.03857142857142857 -2.304205714285714 0.08228571428571428 -0.5931257142857143 0.03514285714285714 -1.1630742857142855 0.18017142857142857 -1.6262057142857143 0.4268571428571428 -0.4359908571428571 0.2321142857142857 -0.9244319999999999 0.6387428571428571 -1.0504851428571427 1.2649714285714284 -0.08081485714285715 0.4013142857142857 -0.16072971428571428 0.8667428571428571 -0.16072971428571428 1.3597714285714286 0 0.49319999999999997 0.07991485714285713 0.9584571428571429 0.16072971428571428 1.3599428571428571 0.12605485714285714 0.6260571428571429 0.6144942857142858 1.032857142857143 1.0504851428571427 1.2649714285714284 0.4631314285714286 0.2465142857142857 1.03308 0.3917142857142857 1.6262057142857143 0.4268571428571428 0.7372457142857143 0.04371428571428571 1.5105257142857142 0.08211428571428571 2.304205714285714 0.08211428571428571 0.7936799999999999 0 1.56696 -0.0384 2.304205714285714 -0.08211428571428571 0.5931257142857143 -0.03514285714285714 1.1630742857142855 -0.18034285714285714 1.6262057142857143 -0.4268571428571428 0.43599428571428567 -0.2321142857142857 0.9244285714285714 -0.6389142857142857 1.0504799999999999 -1.2649714285714284 0.08082857142857142 -0.4014857142857142 0.16073142857142855 -0.8667428571428571 0.16073142857142855 -1.3599428571428571 0 -0.4930285714285714 -0.07992 -0.9584571428571429 -0.16073142857142855 -1.3597714285714286 -0.12605142857142856 -0.6262285714285715 -0.6144857142857142 -1.032857142857143 -1.0504799999999999 -1.2649714285714284 -0.4631314285714286 -0.24668571428571429 -1.03308 -0.3917142857142857 -1.6262057142857143 -0.4268571428571428 -0.7372457142857143 -0.04371428571428571 -1.5105257142857142 -0.08228571428571428 -2.304205714285714 -0.08228571428571428Zm12.69192 -10.482857142857142c0.7952571428571428 0 1.5701142857142858 -0.03853714285714285 2.3089714285714282 -0.08221714285714286 0.594 -0.035108571428571426 1.1648571428571428 -0.1801542857142857 1.6285714285714283 -0.42647999999999997 0.4362857142857143 -0.23177142857142854 0.9260571428571428 -0.6383485714285714 1.0524 -1.2650057142857143 0.08108571428571429 -0.40141714285714286 0.16114285714285714 -0.8668971428571428 0.16114285714285714 -1.3602171428571428 0 -0.49332000000000004 -0.08005714285714285 -0.9588 -0.16114285714285714 -1.3602171428571428 -0.12634285714285715 -0.6266554285714285 -0.6161142857142857 -1.0332359999999998 -1.0524 -1.2650057142857143 -0.46371428571428575 -0.2463308571428571 -1.0345714285714285 -0.39138 -1.6285714285714283 -0.42648342857142857 -0.7388571428571428 -0.043668 -1.5137142857142856 -0.0822222857142857 -2.3089714285714282 -0.0822222857142857 -0.7954285714285714 0 -1.5703371428571429 0.038554285714285715 -2.3092114285714285 0.0822222857142857 -0.5939657142857143 0.03510342857142857 -1.164702857142857 0.1801525714285714 -1.6284514285714287 0.42648171428571424 -0.43632000000000004 0.23177142857142854 -0.926022857142857 0.6383519999999999 -1.0524685714285715 1.2650074285714286 -0.081 0.40141714285714286 -0.1611257142857143 0.8668971428571428 -0.1611257142857143 1.3602171428571428 0 0.49332000000000004 0.08012571428571427 0.9588 0.1611257142857143 1.3602171428571428 0.1264457142857143 0.6266571428571428 0.6161485714285714 1.0332342857142858 1.0524685714285715 1.2650057142857143 0.4637485714285714 0.2463257142857143 1.0344857142857142 0.39137142857142854 1.6284514285714287 0.42647999999999997 0.7388742857142857 0.04368 1.513782857142857 0.08221714285714286 2.3092114285714285 0.08221714285714286Z" clip-rule="evenodd" stroke-width="1.7143"></path>
  </g>
</svg>