<svg xmlns="http://www.w3.org/2000/svg" fill="none" viewBox="0 0 24 24" id="User-Circle-Single--Streamline-Flex">
  <desc>
    User Circle Single Streamline Icon: https://streamlinehq.com
  </desc>
  <g id="user-circle-single--circle-geometric-human-person-single-user">
    <path id="Subtract" fill="currentColor" fill-rule="evenodd" d="M12 24c7.680000000000001 0 12 -4.319999999999999 12 -12s-4.319999999999999 -12 -12 -12 -12 4.319999999999999 -12 12 4.319999999999999 12 12 12Zm6.234171428571428 -4.236342857142857c-0.4364571428571428 -0.8132571428571428 -1.0311428571428571 -1.5390857142857142 -1.7561485714285716 -2.131542857142857 -1.2637371428571427 -1.0329942857142858 -2.8457142857142856 -1.5972514285714283 -4.477885714285714 -1.5972514285714283s-3.214148571428571 0.5642571428571428 -4.477885714285714 1.5972514285714283c-0.7249542857142857 0.5924571428571429 -1.319605714285714 1.3182857142857143 -1.7562 2.131542857142857 1.4269542857142856 1.0256571428571428 3.456257142857143 1.6649142857142856 6.234137142857143 1.6649142857142856 2.7778285714285715 0 4.807097142857143 -0.6392571428571429 6.233982857142856 -1.6649142857142856ZM16.037297142857142 9.032211428571427c0 2.5846285714285715 -1.4538342857142856 4.038462857142857 -4.038462857142857 4.038462857142857 -2.5846114285714283 0 -4.038462857142857 -1.4538342857142856 -4.038462857142857 -4.038462857142857 0 -2.5846114285714283 1.4538514285714284 -4.038462857142857 4.038462857142857 -4.038462857142857 2.5846285714285715 0 4.038462857142857 1.4538514285714284 4.038462857142857 4.038462857142857Z" clip-rule="evenodd" stroke-width="1.7143"></path>
  </g>
</svg>